<svg xmlns="http://www.w3.org/2000/svg" xmlns:xlink="http://www.w3.org/1999/xlink" width="1000" zoomAndPan="magnify" viewBox="0 0 750 749.999995" height="1000" preserveAspectRatio="xMidYMid meet" version="1.0"><defs><g/><clipPath id="33d00deea3"><path d="M 115.308594 115.5625 L 635.058594 115.5625 L 635.058594 634.5625 L 115.308594 634.5625 Z M 115.308594 115.5625 " clip-rule="nonzero"/></clipPath><clipPath id="8b54c385c7"><path d="M 128.429688 130.171875 L 620.429688 130.171875 L 620.429688 621.417969 L 128.429688 621.417969 Z M 128.429688 130.171875 " clip-rule="nonzero"/></clipPath><clipPath id="f83848672c"><path d="M 137.5 375 L 612.25 375 L 612.25 612.75 L 137.5 612.75 Z M 137.5 375 " clip-rule="nonzero"/></clipPath><clipPath id="0854611e85"><path d="M 137.746094 137.242188 L 612.496094 137.242188 L 612.496094 374.992188 L 137.746094 374.992188 Z M 137.746094 137.242188 " clip-rule="nonzero"/></clipPath><clipPath id="a8df8659f2"><path d="M 134.671875 333.566406 L 615.421875 333.566406 L 615.421875 416.066406 L 134.671875 416.066406 Z M 134.671875 333.566406 " clip-rule="nonzero"/></clipPath><clipPath id="0749014d1d"><path d="M 128.429688 347.808594 L 627.179688 347.808594 L 627.179688 399.558594 L 128.429688 399.558594 Z M 128.429688 347.808594 " clip-rule="nonzero"/></clipPath><clipPath id="a989f80a18"><path d="M 222.5 222.648438 L 527.75 222.648438 L 527.75 527.148438 L 222.5 527.148438 Z M 222.5 222.648438 " clip-rule="nonzero"/></clipPath><clipPath id="a0bd5091a6"><path d="M 270.019531 262.820312 L 485.269531 262.820312 L 485.269531 478.070312 L 270.019531 478.070312 Z M 270.019531 262.820312 " clip-rule="nonzero"/></clipPath><clipPath id="da37739f06"><path d="M 446.503906 564.710938 L 466.003906 564.710938 L 466.003906 584.210938 L 446.503906 584.210938 Z M 446.503906 564.710938 " clip-rule="nonzero"/></clipPath></defs><g clip-path="url(#33d00deea3)"><path fill="#159447" d="M 375.183594 115.5625 C 231.660156 115.5625 115.308594 231.746094 115.308594 375.0625 C 115.308594 518.382812 231.660156 634.5625 375.183594 634.5625 C 518.710938 634.5625 635.058594 518.382812 635.058594 375.0625 C 635.058594 231.746094 518.710938 115.5625 375.183594 115.5625 " fill-opacity="1" fill-rule="nonzero"/></g><g clip-path="url(#8b54c385c7)"><path fill="#ffffff" d="M 374.429688 130.171875 C 238.566406 130.171875 128.429688 240.140625 128.429688 375.796875 C 128.429688 511.449219 238.566406 621.417969 374.429688 621.417969 C 510.292969 621.417969 620.429688 511.449219 620.429688 375.796875 C 620.429688 240.140625 510.292969 130.171875 374.429688 130.171875 " fill-opacity="1" fill-rule="nonzero"/></g><g clip-path="url(#f83848672c)"><path fill="#159447" d="M 612.042969 375 C 612.042969 506.324219 505.789062 612.75 374.675781 612.75 C 243.5625 612.75 137.707031 506.324219 137.707031 375 Z M 612.042969 375 " fill-opacity="1" fill-rule="nonzero"/></g><g clip-path="url(#0854611e85)"><path fill="#159447" d="M 137.953125 374.992188 C 137.953125 243.667969 244.207031 137.242188 375.324219 137.242188 C 506.4375 137.242188 612.289062 243.667969 612.289062 374.992188 Z M 137.953125 374.992188 " fill-opacity="1" fill-rule="nonzero"/></g><g clip-path="url(#a8df8659f2)"><path fill="#ffffff" d="M 134.675781 333.566406 L 615.417969 333.566406 L 615.417969 416.066406 L 134.675781 416.066406 L 134.675781 333.566406 " fill-opacity="1" fill-rule="nonzero"/></g><g clip-path="url(#0749014d1d)"><path fill="#159447" d="M 128.457031 347.808594 L 627.152344 347.808594 L 627.152344 399.558594 L 128.457031 399.558594 L 128.457031 347.808594 " fill-opacity="1" fill-rule="nonzero"/></g><g fill="#ffffff" fill-opacity="1"><g transform="translate(254.225635, 248.86683)"><g><path d="M 0.589844 -50.355469 L -22.574219 -31.875 L -17.320312 -25.289062 L -4.191406 -35.761719 L -1.933594 -5.175781 L 1.339844 -1.070312 L 24.75 -19.746094 L 19.496094 -26.332031 L 6.167969 -15.695312 L 3.867188 -46.25 Z M 0.589844 -50.355469 "/></g></g></g><g fill="#ffffff" fill-opacity="1"><g transform="translate(278.710872, 229.885513)"><g/></g></g><g fill="#ffffff" fill-opacity="1"><g transform="translate(287.02608, 223.371933)"><g><path d="M 28.515625 -12.648438 L 38.066406 -16.882812 L 7.953125 -46.183594 L -1.980469 -41.777344 L -0.476562 0.210938 L 9.078125 -4.027344 L 8.554688 -11.359375 L 23.429688 -17.957031 Z M 8.011719 -19.761719 L 6.972656 -35.054688 L 17.613281 -24.019531 Z M 8.011719 -19.761719 "/></g></g></g><g fill="#ffffff" fill-opacity="1"><g transform="translate(322.035293, 208.645061)"><g/></g></g><g fill="#ffffff" fill-opacity="1"><g transform="translate(331.133096, 204.104591)"><g><path d="M 32.699219 -43.082031 L 23.402344 -21.894531 L 9.515625 -40.371094 L -0.914062 -39.152344 L 3.613281 -0.421875 L 13.21875 -1.546875 L 10.441406 -25.300781 L 25.320312 -5.054688 L 35.226562 -28.199219 L 38.003906 -4.445312 L 47.609375 -5.570312 L 43.078125 -44.296875 Z M 32.699219 -43.082031 "/></g></g></g><g fill="#ffffff" fill-opacity="1"><g transform="translate(378.751649, 199.792404)"><g/></g></g><g fill="#ffffff" fill-opacity="1"><g transform="translate(389.769891, 199.665733)"><g><path d="M 33.507812 -25.558594 L 34.851562 -33.875 L 10.113281 -37.867188 L 3.902344 0.628906 L 28.640625 4.621094 L 29.980469 -3.695312 L 14.789062 -6.144531 L 15.882812 -12.921875 L 28.917969 -10.816406 L 30.261719 -19.132812 L 17.222656 -21.234375 L 18.316406 -28.011719 Z M 33.507812 -25.558594 "/></g></g></g><g fill="#ffffff" fill-opacity="1"><g transform="translate(418.119531, 204.602668)"><g/></g></g><g fill="#ffffff" fill-opacity="1"><g transform="translate(428.88703, 206.943088)"><g><path d="M 38.378906 -17.414062 L 41.542969 -25.21875 L 18.324219 -34.644531 L 3.660156 1.484375 L 26.878906 10.910156 L 30.046875 3.105469 L 15.789062 -2.679688 L 18.371094 -9.039062 L 30.605469 -4.074219 L 33.773438 -11.878906 L 21.539062 -16.84375 L 24.117188 -23.203125 Z M 38.378906 -17.414062 "/></g></g></g><g fill="#ffffff" fill-opacity="1"><g transform="translate(455.414084, 218.096571)"><g/></g></g><g fill="#ffffff" fill-opacity="1"><g transform="translate(465.138717, 221.801463)"><g><path d="M 48.703125 -12.144531 L 33.820312 7.628906 L 34.414062 -22.898438 L 26.359375 -28.964844 L 2.90625 2.1875 L 10.632812 8.003906 L 25.578125 -11.851562 L 24.882812 18.730469 L 32.980469 24.824219 L 56.429688 -6.328125 Z M 48.703125 -12.144531 "/></g></g></g><g clip-path="url(#a989f80a18)"><path fill="#ffffff" d="M 375.125 222.648438 C 290.832031 222.648438 222.5 290.816406 222.5 374.898438 C 222.5 458.984375 290.832031 527.148438 375.125 527.148438 C 459.417969 527.148438 527.75 458.984375 527.75 374.898438 C 527.75 290.816406 459.417969 222.648438 375.125 222.648438 " fill-opacity="1" fill-rule="nonzero"/></g><path fill="#159447" d="M 384.480469 346.625 L 390.8125 348.703125 L 390.8125 361.949219 L 384.480469 364.027344 Z M 392.46875 348.703125 L 398.804688 346.625 L 398.804688 364.027344 L 392.46875 361.949219 Z M 382.394531 366.007812 L 400.894531 366.007812 L 400.894531 344.636719 L 382.394531 344.636719 L 382.394531 366.007812 " fill-opacity="1" fill-rule="nonzero"/><path fill="#159447" d="M 389.566406 354.488281 C 389.101562 354.488281 388.730469 354.863281 388.730469 355.320312 C 388.730469 355.789062 389.101562 356.15625 389.566406 356.15625 C 390.027344 356.15625 390.402344 355.789062 390.402344 355.320312 C 390.402344 354.863281 390.027344 354.488281 389.566406 354.488281 " fill-opacity="1" fill-rule="nonzero"/><path fill="#159447" d="M 371.425781 353.765625 L 373.742188 353.765625 L 373.742188 356.753906 L 371.425781 356.753906 Z M 371.425781 349.980469 L 373.742188 349.980469 L 373.742188 352.972656 L 371.425781 352.972656 Z M 374.535156 353.765625 L 376.851562 353.765625 L 376.851562 356.753906 L 374.535156 356.753906 Z M 374.535156 349.980469 L 376.851562 349.980469 L 376.851562 352.972656 L 374.535156 352.972656 Z M 370.632812 357.546875 L 377.644531 357.546875 L 377.644531 349.1875 L 370.632812 349.1875 L 370.632812 357.546875 " fill-opacity="1" fill-rule="nonzero"/><path fill="#159447" d="M 393.71875 354.488281 C 393.25 354.488281 392.882812 354.863281 392.882812 355.320312 C 392.882812 355.789062 393.25 356.15625 393.71875 356.15625 C 394.175781 356.15625 394.550781 355.789062 394.550781 355.320312 C 394.550781 354.863281 394.175781 354.488281 393.71875 354.488281 " fill-opacity="1" fill-rule="nonzero"/><path fill="#159447" d="M 384.441406 340.308594 C 385.214844 337.046875 388.148438 334.617188 391.644531 334.617188 C 395.132812 334.617188 398.070312 337.046875 398.839844 340.308594 Z M 391.644531 332.71875 C 386.507812 332.71875 382.347656 336.882812 382.347656 342.015625 L 382.347656 342.207031 L 400.941406 342.207031 L 400.941406 342.015625 C 400.941406 336.882812 396.777344 332.71875 391.644531 332.71875 " fill-opacity="1" fill-rule="nonzero"/><path fill="#159447" d="M 406.429688 353.765625 L 408.746094 353.765625 L 408.746094 356.753906 L 406.429688 356.753906 Z M 406.429688 349.980469 L 408.746094 349.980469 L 408.746094 352.972656 L 406.429688 352.972656 Z M 409.539062 353.765625 L 411.855469 353.765625 L 411.855469 356.753906 L 409.539062 356.753906 Z M 409.539062 349.980469 L 411.855469 349.980469 L 411.855469 352.972656 L 409.539062 352.972656 Z M 405.636719 357.546875 L 412.644531 357.546875 L 412.644531 349.1875 L 405.636719 349.1875 L 405.636719 357.546875 " fill-opacity="1" fill-rule="nonzero"/><path fill="#159447" d="M 420.789062 373.164062 L 362.5 373.164062 C 361.027344 373.164062 359.832031 371.96875 359.832031 370.5 C 359.832031 369.023438 361.027344 367.828125 362.5 367.828125 L 365.886719 367.828125 C 365.886719 367.816406 365.878906 367.808594 365.878906 367.800781 L 365.878906 338.960938 L 362.242188 338.960938 C 360.71875 338.960938 360.011719 337.0625 361.164062 336.058594 L 390.554688 310.527344 C 391.183594 309.988281 392.105469 309.988281 392.722656 310.527344 L 422.121094 336.058594 C 423.277344 337.0625 422.5625 338.960938 421.035156 338.960938 L 417.410156 338.960938 L 417.410156 367.800781 C 417.410156 367.808594 417.402344 367.816406 417.402344 367.828125 L 420.789062 367.828125 C 422.261719 367.828125 423.457031 369.023438 423.457031 370.5 C 423.457031 371.96875 422.261719 373.164062 420.789062 373.164062 Z M 422.644531 317.691406 C 405.011719 300.574219 376.738281 300.996094 359.617188 318.632812 C 342.5 336.269531 342.925781 364.542969 360.558594 381.664062 C 378.195312 398.78125 406.472656 398.355469 423.589844 380.722656 C 440.703125 363.085938 440.285156 334.808594 422.644531 317.691406 " fill-opacity="1" fill-rule="nonzero"/><g clip-path="url(#a0bd5091a6)"><path fill="#159447" d="M 431.492188 388.710938 C 421.089844 399.347656 406.933594 405.359375 392.0625 405.484375 C 378.582031 405.597656 365.78125 400.949219 355.585938 392.300781 L 350.535156 397.507812 L 352.988281 399.886719 L 326.082031 427.605469 C 323.292969 430.484375 318.699219 430.550781 315.824219 427.757812 C 312.945312 424.96875 312.875 420.371094 315.667969 417.496094 L 342.570312 389.78125 L 345.023438 392.160156 L 350.074219 386.957031 C 341.046875 376.929688 336.003906 364.132812 335.800781 350.511719 C 335.578125 335.691406 341.105469 321.671875 351.371094 311.003906 C 361.648438 300.308594 375.699219 294.160156 390.535156 293.878906 C 405.328125 293.59375 419.347656 299.046875 430.046875 309.21875 C 440.828125 319.472656 447.101562 333.667969 447.402344 348.542969 C 447.703125 363.640625 442.046875 377.925781 431.492188 388.710938 Z M 377.644531 262.84375 C 318.21875 262.84375 270.042969 311.019531 270.042969 370.445312 C 270.042969 429.875 318.21875 478.050781 377.644531 478.050781 C 437.074219 478.050781 485.25 429.875 485.25 370.445312 C 485.25 311.019531 437.074219 262.84375 377.644531 262.84375 " fill-opacity="1" fill-rule="nonzero"/></g><path fill="#ffffff" d="M 453.835938 572.890625 C 453.835938 573.210938 453.898438 573.519531 454.019531 573.816406 C 454.144531 574.113281 454.316406 574.375 454.546875 574.601562 C 454.773438 574.828125 455.035156 575.003906 455.328125 575.125 C 455.625 575.25 455.933594 575.308594 456.253906 575.308594 C 456.578125 575.308594 456.886719 575.25 457.179688 575.125 C 457.476562 575.003906 457.738281 574.828125 457.964844 574.601562 C 458.191406 574.375 458.367188 574.113281 458.492188 573.816406 C 458.613281 573.519531 458.675781 573.210938 458.675781 572.890625 C 458.542969 569.679688 453.96875 569.679688 453.835938 572.890625 Z M 456.253906 574.667969 C 456.019531 574.667969 455.792969 574.621094 455.574219 574.53125 C 455.359375 574.441406 455.164062 574.3125 455 574.144531 C 454.832031 573.976562 454.703125 573.785156 454.613281 573.566406 C 454.523438 573.351562 454.480469 573.125 454.480469 572.886719 C 454.480469 572.652344 454.523438 572.425781 454.617188 572.207031 C 454.707031 571.988281 454.835938 571.796875 455 571.628906 C 455.167969 571.464844 455.359375 571.335938 455.578125 571.246094 C 455.796875 571.15625 456.023438 571.109375 456.257812 571.109375 C 456.496094 571.109375 456.722656 571.15625 456.9375 571.246094 C 457.15625 571.335938 457.347656 571.464844 457.515625 571.632812 C 457.683594 571.800781 457.808594 571.992188 457.902344 572.210938 C 457.992188 572.429688 458.035156 572.65625 458.035156 572.890625 C 458.035156 573.125 457.988281 573.351562 457.898438 573.570312 C 457.808594 573.789062 457.679688 573.980469 457.511719 574.148438 C 457.347656 574.3125 457.152344 574.441406 456.9375 574.53125 C 456.71875 574.621094 456.492188 574.667969 456.253906 574.667969 Z M 456.253906 574.667969 " fill-opacity="1" fill-rule="nonzero"/><g clip-path="url(#da37739f06)"><path fill="#ffffff" d="M 456.253906 564.710938 C 455.617188 564.710938 454.980469 564.773438 454.355469 564.898438 C 453.726562 565.023438 453.117188 565.210938 452.523438 565.453125 C 451.933594 565.699219 451.371094 566 450.839844 566.355469 C 450.308594 566.710938 449.8125 567.117188 449.363281 567.566406 C 448.910156 568.019531 448.503906 568.511719 448.148438 569.046875 C 447.792969 569.578125 447.492188 570.140625 447.246094 570.730469 C 447.003906 571.324219 446.816406 571.933594 446.691406 572.558594 C 446.566406 573.1875 446.503906 573.824219 446.503906 574.460938 C 446.503906 575.101562 446.566406 575.738281 446.691406 576.363281 C 446.816406 576.992188 447.003906 577.601562 447.246094 578.195312 C 447.492188 578.785156 447.792969 579.347656 448.148438 579.878906 C 448.503906 580.410156 448.910156 580.902344 449.363281 581.355469 C 449.8125 581.808594 450.308594 582.214844 450.839844 582.570312 C 451.371094 582.925781 451.933594 583.226562 452.523438 583.46875 C 453.117188 583.714844 453.726562 583.898438 454.355469 584.023438 C 454.980469 584.148438 455.617188 584.210938 456.253906 584.210938 C 456.894531 584.210938 457.53125 584.148438 458.15625 584.023438 C 458.785156 583.898438 459.394531 583.714844 459.988281 583.46875 C 460.578125 583.226562 461.140625 582.925781 461.671875 582.570312 C 462.203125 582.214844 462.699219 581.808594 463.148438 581.355469 C 463.601562 580.902344 464.007812 580.410156 464.363281 579.878906 C 464.71875 579.347656 465.019531 578.785156 465.261719 578.195312 C 465.507812 577.601562 465.695312 576.992188 465.820312 576.363281 C 465.941406 575.738281 466.003906 575.101562 466.003906 574.460938 C 466.003906 573.824219 465.941406 573.1875 465.816406 572.558594 C 465.691406 571.933594 465.507812 571.324219 465.261719 570.730469 C 465.019531 570.140625 464.71875 569.578125 464.363281 569.046875 C 464.007812 568.511719 463.601562 568.019531 463.148438 567.566406 C 462.695312 567.117188 462.203125 566.710938 461.671875 566.355469 C 461.140625 566 460.578125 565.699219 459.988281 565.453125 C 459.394531 565.210938 458.785156 565.023438 458.15625 564.898438 C 457.53125 564.773438 456.894531 564.710938 456.253906 564.710938 Z M 456.449219 580.488281 C 456.320312 580.589844 456.191406 580.589844 456.0625 580.488281 C 455.882812 580.355469 451.738281 577.136719 451.738281 572.890625 C 451.738281 572.59375 451.765625 572.300781 451.824219 572.007812 C 451.882812 571.71875 451.96875 571.433594 452.082031 571.160156 C 452.195312 570.886719 452.332031 570.625 452.5 570.378906 C 452.664062 570.132812 452.851562 569.902344 453.058594 569.695312 C 453.269531 569.484375 453.5 569.296875 453.746094 569.132812 C 453.992188 568.96875 454.253906 568.828125 454.527344 568.714844 C 454.800781 568.601562 455.082031 568.515625 455.375 568.457031 C 455.664062 568.398438 455.960938 568.371094 456.253906 568.371094 C 456.550781 568.371094 456.847656 568.398438 457.136719 568.457031 C 457.429688 568.515625 457.710938 568.601562 457.984375 568.714844 C 458.257812 568.828125 458.519531 568.96875 458.765625 569.132812 C 459.011719 569.296875 459.242188 569.484375 459.453125 569.695312 C 459.660156 569.902344 459.847656 570.132812 460.011719 570.378906 C 460.179688 570.625 460.316406 570.886719 460.429688 571.160156 C 460.542969 571.433594 460.628906 571.71875 460.6875 572.007812 C 460.746094 572.300781 460.773438 572.59375 460.773438 572.890625 C 460.773438 577.136719 456.628906 580.355469 456.449219 580.488281 Z M 456.449219 580.488281 " fill-opacity="1" fill-rule="nonzero"/></g><g fill="#ffffff" fill-opacity="1"><g transform="translate(184.420191, 463.376308)"><g><path d="M 12.855469 7.953125 L 39.242188 -4.882812 L 35.179688 -13.226562 L 1.527344 3.140625 L 10.847656 22.300781 L 18.117188 18.765625 Z M 12.855469 7.953125 "/></g></g></g><g fill="#ffffff" fill-opacity="1"><g transform="translate(199.637134, 494.460114)"><g><path d="M 12.699219 17.175781 C 15.941406 21.355469 20.183594 23.8125 25.433594 24.472656 C 30.6875 25.136719 35.4375 23.847656 39.652344 20.574219 C 43.832031 17.332031 46.257812 13.050781 46.917969 7.800781 C 47.582031 2.550781 46.292969 -2.199219 43.050781 -6.378906 C 39.777344 -10.597656 35.496094 -13.019531 30.246094 -13.683594 C 24.996094 -14.34375 20.277344 -13.019531 16.097656 -9.777344 C 11.878906 -6.503906 9.425781 -2.261719 8.761719 2.988281 C 8.101562 8.242188 9.425781 12.960938 12.699219 17.175781 Z M 19.875 11.609375 C 18.097656 9.324219 17.347656 6.808594 17.722656 4.121094 C 18.027344 1.417969 19.378906 -0.828125 21.664062 -2.601562 C 23.953125 -4.378906 26.425781 -5.097656 29.15625 -4.753906 C 31.816406 -4.417969 34.101562 -3.097656 35.878906 -0.8125 C 37.652344 1.476562 38.332031 3.980469 38.027344 6.679688 C 37.652344 9.371094 36.371094 11.625 34.085938 13.402344 C 31.800781 15.175781 29.257812 15.886719 26.597656 15.550781 C 23.867188 15.207031 21.648438 13.894531 19.875 11.609375 Z M 19.875 11.609375 "/></g></g></g><g fill="#ffffff" fill-opacity="1"><g transform="translate(233.507205, 535.522404)"><g><path d="M 16.445312 13.636719 C 18.871094 15.554688 21.542969 16.839844 24.523438 17.414062 C 27.472656 18.03125 30.371094 17.902344 33.265625 17.140625 L 30.972656 8.457031 C 27.734375 9.332031 24.816406 8.679688 22.074219 6.511719 C 19.804688 4.71875 18.476562 2.457031 18.195312 -0.246094 C 17.84375 -2.941406 18.617188 -5.445312 20.410156 -7.714844 C 22.207031 -9.984375 24.433594 -11.277344 27.167969 -11.597656 C 29.832031 -11.910156 32.367188 -11.175781 34.640625 -9.378906 C 37.378906 -7.214844 38.65625 -4.484375 38.582031 -1.175781 L 47.5625 -0.945312 C 47.636719 -3.9375 47.0625 -6.746094 45.8125 -9.515625 C 44.535156 -12.242188 42.699219 -14.585938 40.269531 -16.503906 C 36.082031 -19.816406 31.34375 -21.144531 26.089844 -20.527344 C 20.832031 -19.914062 16.566406 -17.496094 13.289062 -13.347656 C 9.976562 -9.160156 8.609375 -4.453125 9.222656 0.804688 C 9.839844 6.058594 12.253906 10.324219 16.445312 13.636719 Z M 16.445312 13.636719 "/></g></g></g><g fill="#ffffff" fill-opacity="1"><g transform="translate(271.89486, 564.457374)"><g><path d="M 27.140625 12.636719 L 36.234375 16.871094 L 38.414062 -23.394531 L 28.960938 -27.796875 L -0.453125 -0.210938 L 8.640625 4.023438 L 13.613281 -0.980469 L 27.769531 5.609375 Z M 19.347656 -6.679688 L 29.75 -17.082031 L 28.484375 -2.421875 Z M 19.347656 -6.679688 "/></g></g></g><g fill="#ffffff" fill-opacity="1"><g transform="translate(317.126297, 583.773094)"><g><path d="M 35.839844 -30.132812 L 8.90625 -36.351562 L 7.085938 -28.476562 L 16.082031 -26.398438 L 9.480469 2.1875 L 18.476562 4.265625 L 25.074219 -24.320312 L 34.019531 -22.257812 Z M 35.839844 -30.132812 "/></g></g></g><g fill="#ffffff" fill-opacity="1"><g transform="translate(354.887478, 592.154644)"><g><path d="M 21.351562 0.699219 C 26.640625 0.746094 31.195312 -1.054688 34.972656 -4.761719 C 38.75 -8.46875 40.691406 -12.992188 40.738281 -18.332031 C 40.789062 -23.621094 38.933594 -28.179688 35.226562 -31.957031 C 31.519531 -35.734375 27 -37.671875 21.710938 -37.722656 C 16.371094 -37.769531 11.8125 -35.917969 8.035156 -32.210938 C 4.257812 -28.503906 2.371094 -23.980469 2.320312 -18.691406 C 2.269531 -13.351562 4.074219 -8.792969 7.78125 -5.015625 C 11.488281 -1.238281 16.011719 0.648438 21.351562 0.699219 Z M 21.433594 -8.382812 C 18.542969 -8.410156 16.105469 -9.378906 14.226562 -11.34375 C 12.300781 -13.257812 11.375 -15.710938 11.402344 -18.605469 C 11.429688 -21.5 12.398438 -23.886719 14.363281 -25.8125 C 16.277344 -27.691406 18.730469 -28.667969 21.625 -28.640625 C 24.519531 -28.613281 26.902344 -27.59375 28.832031 -25.679688 C 30.710938 -23.714844 31.6875 -21.308594 31.660156 -18.417969 C 31.632812 -15.523438 30.609375 -13.085938 28.695312 -11.207031 C 26.734375 -9.28125 24.328125 -8.355469 21.433594 -8.382812 Z M 21.433594 -8.382812 "/></g></g></g><g fill="#ffffff" fill-opacity="1"><g transform="translate(407.842636, 590.947231)"><g><path d="M 20.15625 -19.90625 C 22.144531 -21.070312 23.550781 -22.769531 24.4375 -24.964844 C 25.320312 -27.160156 25.507812 -29.503906 24.945312 -31.984375 C 24.21875 -35.199219 22.542969 -37.632812 19.945312 -39.398438 C 17.308594 -41.105469 14.425781 -41.628906 11.261719 -40.914062 L -4.847656 -37.273438 L 3.40625 -0.769531 L 12.460938 -2.816406 L 9.398438 -16.347656 L 11.589844 -16.84375 L 23.214844 -5.25 L 33.582031 -7.59375 Z M 13.347656 -24.914062 L 7.75 -23.648438 L 5.988281 -31.433594 L 11.585938 -32.699219 C 12.707031 -32.953125 13.71875 -32.773438 14.613281 -32.207031 C 15.519531 -31.59375 16.117188 -30.757812 16.359375 -29.6875 C 16.613281 -28.566406 16.433594 -27.554688 15.867188 -26.660156 C 15.3125 -25.714844 14.464844 -25.164062 13.347656 -24.914062 Z M 13.347656 -24.914062 "/></g></g></g><g fill="#ffffff" fill-opacity="1"><g transform="translate(448.782766, 580.217357)"><g/></g></g><g fill="#ffffff" fill-opacity="1"><g transform="translate(469.106844, 572.546853)"><g><path d="M 18.605469 -10.492188 C 21.265625 -12.074219 23.421875 -14.113281 25.023438 -16.691406 C 26.648438 -19.226562 27.566406 -21.980469 27.882812 -24.957031 L 18.953125 -25.914062 C 18.617188 -22.574219 16.964844 -20.082031 13.964844 -18.296875 C 11.476562 -16.816406 8.890625 -16.382812 6.265625 -17.082031 C 3.625 -17.71875 1.558594 -19.335938 0.078125 -21.820312 C -1.402344 -24.308594 -1.8125 -26.851562 -1.132812 -29.519531 C -0.476562 -32.117188 1.117188 -34.226562 3.601562 -35.707031 C 6.605469 -37.492188 9.609375 -37.710938 12.675781 -36.460938 L 16.09375 -44.765625 C 13.328125 -45.90625 10.496094 -46.367188 7.464844 -46.191406 C 4.460938 -45.972656 1.617188 -45.089844 -1.042969 -43.507812 C -5.628906 -40.777344 -8.5625 -36.828125 -9.863281 -31.699219 C -11.167969 -26.566406 -10.429688 -21.722656 -7.726562 -17.175781 C -4.996094 -12.589844 -1.085938 -9.632812 4.042969 -8.328125 C 9.171875 -7.027344 14.019531 -7.761719 18.605469 -10.492188 Z M 18.605469 -10.492188 "/></g></g></g><g fill="#ffffff" fill-opacity="1"><g transform="translate(510.101845, 547.004437)"><g><path d="M 15.550781 -14.644531 C 19.316406 -18.359375 21.253906 -22.863281 21.289062 -28.15625 C 21.324219 -33.445312 19.484375 -38.011719 15.734375 -41.8125 C 12.019531 -45.578125 7.480469 -47.476562 2.191406 -47.511719 C -3.101562 -47.546875 -7.667969 -45.707031 -11.433594 -41.992188 C -15.230469 -38.242188 -17.132812 -33.707031 -17.167969 -28.414062 C -17.203125 -23.121094 -15.328125 -18.589844 -11.613281 -14.828125 C -7.863281 -11.027344 -3.363281 -9.089844 1.929688 -9.054688 C 7.222656 -9.019531 11.753906 -10.894531 15.550781 -14.644531 Z M 9.175781 -21.109375 C 7.113281 -19.074219 4.707031 -18.035156 1.992188 -18.085938 C -0.726562 -18.070312 -3.117188 -19.144531 -5.148438 -21.203125 C -7.183594 -23.265625 -8.191406 -25.636719 -8.171875 -28.386719 C -8.152344 -31.070312 -7.113281 -33.496094 -5.054688 -35.53125 C -2.992188 -37.5625 -0.585938 -38.535156 2.128906 -38.550781 C 4.84375 -38.496094 7.238281 -37.492188 9.269531 -35.433594 C 11.304688 -33.371094 12.308594 -30.929688 12.292969 -28.25 C 12.273438 -25.5 11.234375 -23.140625 9.175781 -21.109375 Z M 9.175781 -21.109375 "/></g></g></g><g fill="#ffffff" fill-opacity="1"><g transform="translate(547.820701, 508.249207)"><g><path d="M -14.660156 -49.796875 L -3.589844 -30.546875 L -25.769531 -30.339844 L -30.765625 -21.589844 L 1.730469 -3.035156 L 6.332031 -11.09375 L -13.597656 -22.472656 L 10.511719 -22.4375 L -1.722656 -43.273438 L 18.207031 -31.894531 L 22.808594 -39.953125 L -9.6875 -58.507812 Z M -14.660156 -49.796875 "/></g></g></g><g fill="#ffffff" fill-opacity="1"><g transform="translate(533.891686, 382.650001)"><g><path d="M 12.484375 -14.074219 L 12.484375 -17.246094 L 1.886719 -17.246094 L 1.886719 0 L 5.472656 0 L 5.472656 -7.035156 L 11.519531 -7.035156 L 11.519531 -10.210938 L 5.472656 -10.210938 L 5.472656 -14.074219 Z M 12.484375 -14.074219 "/></g></g></g><g fill="#ffffff" fill-opacity="1"><g transform="translate(546.836326, 382.650001)"><g><path d="M 1.886719 0 L 5.472656 0 L 5.472656 -17.246094 L 1.886719 -17.246094 Z M 1.886719 0 "/></g></g></g><g fill="#ffffff" fill-opacity="1"><g transform="translate(554.170855, 382.650001)"><g><path d="M 14.117188 -17.246094 L 14.117188 -5.378906 L 5.425781 -17.246094 L 1.746094 -17.246094 L 1.746094 0 L 5.335938 0 L 5.335938 -11.910156 L 14.003906 0 L 17.683594 0 L 17.683594 -17.246094 Z M 14.117188 -17.246094 "/></g></g></g><g fill="#ffffff" fill-opacity="1"><g transform="translate(573.599306, 382.650001)"><g><path d="M 1.746094 0 L 7.3125 0 C 10.003906 0 12.140625 -0.804688 13.726562 -2.460938 C 15.292969 -4.09375 16.097656 -6.140625 16.097656 -8.625 C 16.097656 -11.082031 15.292969 -13.128906 13.726562 -14.785156 C 12.140625 -16.417969 10.003906 -17.246094 7.3125 -17.246094 L 1.746094 -17.246094 Z M 5.3125 -3.195312 L 5.3125 -14.050781 L 7.152344 -14.050781 C 8.761719 -14.050781 10.046875 -13.542969 10.96875 -12.53125 C 11.886719 -11.519531 12.371094 -10.210938 12.371094 -8.625 C 12.371094 -7.011719 11.886719 -5.726562 10.96875 -4.714844 C 10.046875 -3.703125 8.761719 -3.195312 7.152344 -3.195312 Z M 5.3125 -3.195312 "/></g></g></g><g fill="#ffffff" fill-opacity="1"><g transform="translate(590.820501, 382.650001)"><g><path d="M 12.484375 -14.074219 L 12.484375 -17.246094 L 1.886719 -17.246094 L 1.886719 0 L 12.484375 0 L 12.484375 -3.171875 L 5.472656 -3.171875 L 5.472656 -7.035156 L 11.519531 -7.035156 L 11.519531 -10.210938 L 5.472656 -10.210938 L 5.472656 -14.074219 Z M 12.484375 -14.074219 "/></g></g></g><g fill="#ffffff" fill-opacity="1"><g transform="translate(604.339944, 382.650001)"><g><path d="M 10.507812 -7.175781 C 11.542969 -7.449219 12.394531 -8.046875 13.0625 -8.921875 C 13.726562 -9.796875 14.074219 -10.832031 14.074219 -12.003906 C 14.074219 -13.476562 13.566406 -14.71875 12.601562 -15.730469 C 11.613281 -16.742188 10.394531 -17.246094 8.945312 -17.246094 L 1.746094 -17.246094 L 1.746094 0 L 5.335938 0 L 5.335938 -6.804688 L 6.96875 -6.804688 L 11.246094 0 L 15.382812 0 Z M 8.4375 -9.773438 L 5.335938 -9.773438 L 5.335938 -14.050781 L 8.4375 -14.050781 C 9.058594 -14.050781 9.589844 -13.84375 10.003906 -13.429688 C 10.417969 -13.015625 10.625 -12.507812 10.625 -11.910156 C 10.625 -11.289062 10.417969 -10.785156 10.003906 -10.371094 C 9.589844 -9.957031 9.058594 -9.773438 8.4375 -9.773438 Z M 8.4375 -9.773438 "/></g></g></g><g fill="#ffffff" fill-opacity="1"><g transform="translate(140.794024, 383.628429)"><g><path d="M 10.671875 -20.578125 L 2.085938 -20.578125 L 2.085938 0 L 6.363281 0 L 6.363281 -8.421875 L 10.671875 -8.421875 C 12.375 -8.421875 13.828125 -9 15.007812 -10.152344 C 16.1875 -11.304688 16.789062 -12.730469 16.789062 -14.429688 C 16.789062 -16.132812 16.1875 -17.558594 15.007812 -18.765625 C 13.800781 -19.972656 12.375 -20.578125 10.671875 -20.578125 Z M 10.015625 -11.988281 L 6.363281 -11.988281 L 6.363281 -16.789062 L 10.015625 -16.789062 C 10.78125 -16.789062 11.414062 -16.542969 11.90625 -16.105469 C 12.402344 -15.664062 12.675781 -15.089844 12.675781 -14.375 C 12.675781 -13.664062 12.402344 -13.085938 11.90625 -12.648438 C 11.414062 -12.207031 10.78125 -11.988281 10.015625 -11.988281 Z M 10.015625 -11.988281 "/></g></g></g><g fill="#ffffff" fill-opacity="1"><g transform="translate(157.74801, 383.628429)"><g><path d="M 6.363281 -3.8125 L 6.363281 -20.578125 L 2.085938 -20.578125 L 2.085938 0 L 13.277344 0 L 13.277344 -3.8125 Z M 6.363281 -3.8125 "/></g></g></g><g fill="#ffffff" fill-opacity="1"><g transform="translate(171.108185, 383.628429)"><g><path d="M 11.90625 0.273438 C 14.816406 0.273438 17.3125 -0.742188 19.367188 -2.796875 C 21.425781 -4.855469 22.46875 -7.351562 22.46875 -10.289062 C 22.46875 -13.195312 21.425781 -15.691406 19.367188 -17.75 C 17.3125 -19.808594 14.816406 -20.851562 11.90625 -20.851562 C 8.972656 -20.851562 6.476562 -19.808594 4.417969 -17.75 C 2.359375 -15.691406 1.34375 -13.195312 1.34375 -10.289062 C 1.34375 -7.351562 2.359375 -4.855469 4.417969 -2.796875 C 6.476562 -0.742188 8.972656 0.273438 11.90625 0.273438 Z M 11.90625 -3.921875 C 10.097656 -3.921875 8.585938 -4.527344 7.378906 -5.761719 C 6.144531 -6.96875 5.542969 -8.476562 5.542969 -10.289062 C 5.542969 -12.070312 6.144531 -13.582031 7.378906 -14.816406 C 8.585938 -16.023438 10.097656 -16.652344 11.90625 -16.652344 C 13.691406 -16.652344 15.199219 -16.023438 16.433594 -14.816406 C 17.640625 -13.582031 18.273438 -12.070312 18.273438 -10.289062 C 18.273438 -8.476562 17.640625 -6.96875 16.433594 -5.761719 C 15.199219 -4.527344 13.691406 -3.921875 11.90625 -3.921875 Z M 11.90625 -3.921875 "/></g></g></g><g fill="#ffffff" fill-opacity="1"><g transform="translate(194.920581, 383.628429)"><g><path d="M 15.007812 -20.578125 L 0.273438 -20.578125 L 0.273438 -16.761719 L 5.515625 -16.761719 L 5.515625 0 L 9.765625 0 L 9.765625 -16.761719 L 15.007812 -16.761719 Z M 15.007812 -20.578125 "/></g></g></g></svg>